<?xml version="1.0" encoding="UTF-8"?>
<svg width="512px" height="512px" viewBox="0 0 512 512" version="1.1" xmlns="http://www.w3.org/2000/svg" xmlns:xlink="http://www.w3.org/1999/xlink">
    <title>favicon</title>
    <defs>
        <path d="M1.97266874,342.26871 C14.9727095,316.108057 27.1595923,320.265446 51.7533228,230.695523 C59.0949469,203.95746 55.6263292,157.189455 54.788002,133.798301 C52.4766635,69.3069336 80.1668885,17.1133732 93.3726917,17.1133732 C106.947632,17.1133732 118.071592,52.0949585 126.744574,122.058129 C142.874861,110.368239 159.277141,104.523294 175.951414,104.523294 C200.962823,104.523294 206.453815,106.695506 227.733451,122.058129 C249.013086,137.420752 252.606742,147.541719 279.685128,155.925984 C306.763514,164.310248 353.869569,150.836019 353.934785,175.719936 C353.989462,196.582998 360.032103,249.634681 240.848693,255.885712 C225.535532,256.688869 221.163784,262.45688 227.733451,273.189745 C236.167267,346.489445 236.167267,393.864951 227.733451,415.31626 C215.082726,447.493225 144.155174,431.747528 93.3726917,415.31626 C42.5902097,398.884992 -11.0273721,368.429363 1.97266874,342.26871 Z" id="path-1"></path>
    </defs>
    <g id="favicon" stroke="none" fill="none" fill-rule="evenodd" stroke-width="1">
        <g id="walter" transform="translate(79, 39)">
            <path d="M126.17169,83.4744893 C151.711242,32.4181371 170.73826,4.85150374 183.252743,0.774589172 C202.024467,-5.34078268 240.724233,26.3365793 229.992243,40.225203 C226.57831,44.6432859 202.024467,39.0024644 202.024467,47.8968335 C202.024467,59.263179 203.471085,78.8618932 206.364322,106.692976 L176.655976,101.411876 L142.109544,106.692976 L131.263683,106.692976 L129.38276,98.1163394 L126.17169,83.4744893 Z" id="Path-Copy-3" fill="#D9A611"></path>
            <mask id="mask-2" fill="white">
                <use xlink:href="#path-1"></use>
            </mask>
            <path stroke="#D9A611" stroke-width="17.0864036" d="M133.487575,107.662431 C147.321602,99.8913086 161.502918,95.9800919 175.951414,95.9800919 C202.406325,95.9800919 209.667255,98.4785014 232.734131,115.131406 C237.012041,118.219801 240.797069,121.229402 244.945345,124.76298 C246.390189,125.993725 252.543822,131.361434 254.128321,132.693921 C262.775444,139.965733 269.6908,143.888095 282.212,147.765027 C288.253401,149.635622 295.793947,150.39995 307.695618,150.651703 C309.43262,150.688446 310.778223,150.709333 313.999482,150.753522 C330.233935,150.976224 336.843745,151.416101 344.045014,153.449435 C355.500138,156.683878 362.44749,164.072148 362.477957,175.697546 C362.479884,176.432779 362.485498,176.914792 362.509591,178.651277 C362.608054,185.74807 362.500311,189.815535 361.843763,195.010432 C360.918984,202.327683 359.000451,209.176774 355.758784,215.712203 C341.769136,243.91632 306.035793,261.021669 241.296159,264.417187 C238.179091,264.580674 235.76836,264.972509 234.120466,265.522605 C233.900348,265.596084 233.703085,265.669318 233.52886,265.740932 C233.782176,266.487108 234.26627,267.498275 235.019977,268.729608 L236.004992,270.338826 L236.220658,272.213212 C244.818539,346.93883 244.818539,395.209181 235.684226,418.442195 C231.602318,428.824478 223.002361,435.750334 211.019373,439.378242 C201.060632,442.393299 188.723057,443.176521 174.199132,442.06253 C150.589252,440.251643 121.792148,433.490985 90.742683,423.444566 C63.0400909,414.481067 36.8290074,402.268846 18.7911656,389.394727 C8.4746603,382.031544 0.81682344,374.483707 -3.73666249,366.737755 C-9.2638066,357.33551 -10.1959152,347.55856 -5.67797194,338.466869 C-4.83269645,336.765878 -3.9674381,335.136283 -3.07110444,333.551245 C-0.841061356,329.607733 1.29890589,326.365482 4.59994921,321.743673 C13.5145436,309.262301 15.7992187,305.679047 20.7447024,295.139565 C27.7536228,280.202626 35.0983803,259.086768 43.5150287,228.433487 C46.3410395,218.141206 47.6724132,203.533474 47.7886521,185.096959 C47.853863,174.753929 47.5714874,164.525344 46.9466373,150.265656 C46.8622611,148.34011 46.584639,142.178094 46.5622723,141.674814 C46.4202721,138.479611 46.3248721,136.185526 46.2502816,134.104289 C45.150192,103.409397 50.5364159,73.0518423 60.3086962,48.1505966 C69.6187338,24.4272152 81.4881162,8.5701714 93.3726917,8.5701714 C113.002388,8.5701714 124.34864,40.527427 133.487575,107.662431 Z"></path>
            <path d="M177.16856,138.267412 C157.696067,142.801353 154.792714,151.816396 159.882853,165.067814 C164.972992,178.319232 201.843359,166.642781 201.843359,160.336423 C203.245905,152.8398 196.641054,133.733471 177.16856,138.267412 Z" id="Path-Copy-2" fill="#D9A611" mask="url(#mask-2)"></path>
            <path d="M359.393868,160.525391 L323.374484,154.35617 C326.472507,164.831331 331.023134,173.922454 337.026364,181.629537 C343.029595,189.336621 350.48543,195.659666 359.393868,200.598671 L359.393868,160.525391 Z" id="Path-Copy" fill="#D9A611" mask="url(#mask-2)"></path>
            <path d="M157.046243,253.712803 C198.636559,256.363305 225.604673,257.151442 237.950584,256.077212 C250.296496,255.002983 249.269349,263.099527 234.869143,280.366844 L227.733451,273.182515 C206.743099,272.206664 190.585462,270.159101 179.260538,267.039823 C167.935614,263.920546 160.530849,259.478206 157.046243,253.712803 Z" id="Path" fill="#D9A611" mask="url(#mask-2)"></path>
        </g>
    </g>
</svg>