<?xml version="1.0" encoding="UTF-8"?>
<svg width="512px" height="512px" viewBox="0 0 512 512" version="1.1" xmlns="http://www.w3.org/2000/svg" xmlns:xlink="http://www.w3.org/1999/xlink">
    <title>favicon</title>
    <defs>
        <path d="M1.97266874,342.26871 C14.9727095,316.108057 27.1595923,320.265446 51.7533228,230.695523 C59.0949469,203.95746 55.6263292,157.189455 54.788002,133.798301 C52.4766635,69.3069336 80.1668885,17.1133732 93.3726917,17.1133732 C106.947632,17.1133732 118.071592,52.0949585 126.744574,122.058129 C142.874861,110.368239 159.277141,104.523294 175.951414,104.523294 C200.962823,104.523294 206.453815,106.695506 227.733451,122.058129 C249.013086,137.420752 252.606742,147.541719 279.685128,155.925984 C306.763514,164.310248 353.869569,150.836019 353.934785,175.719936 C353.989462,196.582998 360.032103,249.634681 240.848693,255.885712 C225.535532,256.688869 221.163784,262.45688 227.733451,273.189745 C236.167267,346.489445 236.167267,393.864951 227.733451,415.31626 C215.082726,447.493225 144.155174,431.747528 93.3726917,415.31626 C42.5902097,398.884992 -11.0273721,368.429363 1.97266874,342.26871 Z" id="path-1"></path>
    </defs>
    <g id="favicon" stroke="none" fill="none" fill-rule="evenodd" stroke-width="1">
        <g id="walter" transform="translate(79, 39)">
            <path d="M126.17169,83.4744893 C151.711242,32.4181371 170.73826,4.85150374 183.252743,0.774589172 C202.024467,-5.34078268 240.724233,26.3365793 229.992243,40.225203 C226.57831,44.6432859 202.024467,39.0024644 202.024467,47.8968335 C202.024467,59.263179 203.471085,78.8618932 206.364322,106.692976 L176.655976,101.411876 L142.109544,106.692976 L131.263683,106.692976 L129.38276,98.1163394 L126.17169,83.4744893 Z" id="Path-Copy-3" fill-opacity="0.99" fill="#1F1F1F"></path>
            <mask id="mask-2" fill="white">
                <use xlink:href="#path-1"></use>
            </mask>
            <path stroke-opacity="0.99" stroke="#1F1F1F" stroke-width="17.0864036" d="M93.3726917,8.5701714 C98.9263937,8.5701714 104.769582,11.2331365 110.073294,18.7448983 C113.532664,23.6444787 116.918017,30.9481017 120.038344,40.7606151 C124.975946,56.2879189 129.474191,78.5676701 133.474597,107.613419 C147.459292,99.8068446 161.633168,95.9800919 175.951414,95.9800919 C203.356672,95.9800919 209.399484,98.2851872 232.734131,115.131406 C239.676357,120.143277 244.80976,124.611945 249.451984,128.661935 C258.37295,136.444805 265.223442,142.50487 282.212,147.765027 C289.88348,150.140342 299.296304,150.526308 308.65647,150.679211 L310.410446,150.705577 C311.578768,150.721906 312.744516,150.736309 313.904184,150.752215 C327.15199,150.933923 339.683904,151.396824 348.019833,154.807234 C352.616417,156.687796 356.179909,159.388134 358.646692,162.894417 C361.008145,166.250983 362.464102,170.41102 362.477957,175.697546 C362.480206,176.555538 362.493143,177.469888 362.506578,178.43471 C362.723927,194.04228 362.669915,220.619869 333.502265,240.560494 C316.253677,252.352586 288.000923,261.967577 241.296159,264.417187 C237.983625,264.590926 234.951285,264.403578 233.429854,265.465468 C233.684214,266.445012 234.275968,267.514119 235.019977,268.729608 C235.351262,269.270827 235.670433,269.771962 235.990862,270.228403 C236.067684,270.887822 236.144283,271.549425 236.220658,272.213212 C244.91043,347.737471 244.357821,396.381011 235.684226,418.442195 C232.31745,427.00555 225.951433,433.149651 217.13576,437.10679 C208.850372,440.825897 198.206048,442.543202 186.110008,442.543202 C157.716284,442.543202 120.794238,433.168099 90.742683,423.444566 C61.7992953,414.079593 32.0309524,400.224799 13.275075,385.234968 C4.29354374,378.056864 -2.23994838,370.512631 -5.6251178,363.127689 C-9.45810009,354.765817 -9.65131559,346.462634 -5.67797194,338.466869 C-1.84462048,330.752818 1.90227778,325.495622 5.90139072,319.928469 C15.4269108,306.66802 26.2485243,291.317784 43.5150287,228.433487 C49.6547289,206.072809 47.8049911,169.251784 46.7126008,145.02447 C46.5318685,141.016143 46.3661901,137.338387 46.2502816,134.104289 C45.2087412,105.043045 50.0313025,78.3836895 56.9390184,57.4938927 C61.4147966,43.9585797 66.7864877,32.8081755 72.0037471,24.8756203 C79.874005,12.9093274 87.9841488,8.5701714 93.3726917,8.5701714 Z"></path>
            <path d="M177.16856,138.267412 C157.696067,142.801353 154.792714,151.816396 159.882853,165.067814 C164.972992,178.319232 201.843359,166.642781 201.843359,160.336423 C203.245905,152.8398 196.641054,133.733471 177.16856,138.267412 Z" id="Path-Copy-2" fill-opacity="0.99" fill="#1F1F1F" mask="url(#mask-2)"></path>
            <path d="M359.393868,167.421459 L323.374484,154.35617 C326.472507,164.831331 331.023134,173.922454 337.026364,181.629537 C343.029595,189.336621 350.48543,195.659666 359.393868,200.598671 L359.393868,167.421459 Z" id="Path-Copy" fill-opacity="0.99" fill="#1F1F1F" mask="url(#mask-2)"></path>
            <path d="M157.046243,253.712803 C198.636559,256.363305 225.604673,257.151442 237.950584,256.077212 C250.296496,255.002983 249.269349,263.099527 234.869143,280.366844 L227.733451,273.182515 C206.743099,272.206664 190.585462,270.159101 179.260538,267.039823 C167.935614,263.920546 160.530849,259.478206 157.046243,253.712803 Z" id="Path" fill-opacity="0.99" fill="#1F1F1F" mask="url(#mask-2)"></path>
        </g>
    </g>
</svg>