<?xml version="1.0" encoding="UTF-8"?>
<svg width="180px" height="209px" viewBox="0 0 180 209" version="1.1" xmlns="http://www.w3.org/2000/svg" xmlns:xlink="http://www.w3.org/1999/xlink">
    <title>walter</title>
    <defs>
        <path d="M0.913794593,159.062716 C6.9357722,146.944722 12.5810726,148.870485 23.9735672,107.380396 C27.37441,94.9949376 25.7676506,73.3313187 25.3793143,62.496197 C24.3086385,32.6228595 37.1355148,8.44604474 43.2528072,8.44604474 C49.541094,8.44604474 54.6940195,24.6500228 58.7115838,57.0579788 C66.183578,51.643052 73.7815667,48.9355886 81.5055499,48.9355886 C93.0915247,48.9355886 95.6351039,49.9417886 105.492418,57.0579788 C115.349733,64.174169 117.014413,68.8623475 129.557869,72.7460606 C142.101324,76.6297737 163.922149,70.3883152 163.952358,81.9149065 C163.977687,91.5789796 166.776805,116.153289 111.56776,119.048857 C104.474281,119.420892 102.449167,122.092718 105.492418,127.064337 C109.399195,161.017822 109.399195,182.962844 105.492418,192.899402 C99.6322537,207.804239 66.7766541,200.510603 43.2528072,192.899402 C19.7289603,185.2882 -5.10818301,171.18071 0.913794593,159.062716 Z" id="path-1"></path>
    </defs>
    <g id="Symbols" stroke="none" stroke-width="1" fill="none" fill-rule="evenodd">
        <g id="Frame" transform="translate(-1957, -457)">
            <g id="walter-logo" transform="translate(1953, 450)">
                <g id="walter" transform="translate(12, 6.4813)">
                    <path d="M58.4462082,39.1863448 C70.2768336,15.5356337 79.0906732,2.76600846 84.8877269,0.87746914 C93.5833075,-1.95533985 111.510107,12.7184883 106.538753,19.152082 C104.957325,21.1986599 93.5833075,18.5856758 93.5833075,22.705793 C93.5833075,27.9709978 94.2534211,37.049663 95.5936483,49.9417886 L81.8319225,47.4954372 L65.8290622,49.9417886 L60.8049598,49.9417886 L59.9336646,45.9688538 L58.4462082,39.1863448 Z" id="Path-Copy-3" fill-opacity="0.99" fill="#1F1F1F"></path>
                    <mask id="mask-2" fill="white">
                        <use xlink:href="#path-1"></use>
                    </mask>
                    <path stroke-opacity="0.99" stroke="#1F1F1F" stroke-width="7.91489362" d="M43.2528072,4.48859793 C45.8254346,4.48859793 48.5321404,5.72213997 50.9889566,9.20168341 C52.5914392,11.4712499 54.1596353,14.8544072 55.6050636,19.3997258 C57.892299,26.5922055 59.9760132,36.9125198 61.82915,50.3668631 C68.307235,46.7507494 74.8729536,44.9781418 81.5055499,44.9781418 C94.2004028,44.9781418 96.9995937,46.0458983 107.808828,53.8492983 C111.024659,56.1708705 113.402594,58.2408226 115.553001,60.1168372 C119.685441,63.7219778 122.858782,66.5290882 130.728355,68.9656709 C134.298731,70.071133 138.693839,70.2315458 143.039855,70.3129219 L143.95211,70.3284774 C144.4391,70.3360825 144.925094,70.3427459 145.409078,70.3493841 C151.545813,70.4335538 157.35093,70.6479736 161.212353,72.2277211 C163.341622,73.0988264 164.99233,74.3496694 166.135014,75.9738329 C167.228923,77.5286707 167.903374,79.4556947 167.909792,81.9045346 C167.910833,82.3019682 167.916826,82.7255075 167.92305,83.1724265 C167.929409,83.629038 167.935266,84.1059192 167.937256,84.6010154 L167.937833,85.1021071 C167.923884,92.4537692 166.860932,103.491127 154.487409,111.950116 C146.497394,117.412379 133.409947,121.866179 111.775033,123.000873 C110.240665,123.081346 108.836086,122.994576 108.131172,123.486399 C108.249009,123.940093 108.523105,124.435267 108.867713,124.998236 C109.021167,125.248926 109.169008,125.481051 109.317478,125.692573 C109.353064,125.998026 109.388546,126.304491 109.423925,126.611967 C113.449274,161.595958 113.193277,184.128381 109.175423,194.347456 C107.615834,198.31414 104.666918,201.160198 100.583237,202.99321 C96.7452272,204.71595 91.8144952,205.511428 86.2112912,205.511428 C73.0585436,205.511428 55.9552455,201.168746 42.0345458,196.664667 C28.6271746,192.326677 14.8376606,185.908937 6.14942362,178.965432 C1.98891725,175.640419 -1.03758358,172.145806 -2.60569214,168.724983 C-4.38126302,164.851582 -4.47076347,161.005368 -2.63017346,157.301559 C-1.014667,154.050683 0.569102162,151.737516 2.2394017,149.40329 L2.61565118,148.878652 C2.70620378,148.752597 2.79695121,148.626219 2.88791344,148.499349 L3.16146453,148.117088 C7.54923219,141.971837 12.477952,134.300042 20.1573695,106.332531 C23.0014432,95.9747587 22.1445903,78.9187545 21.6385658,67.6963315 C21.5548456,65.8396153 21.4780988,64.1360245 21.4244068,62.6379429 C20.9419355,49.1763247 23.1758836,36.8272982 26.3757349,27.1508207 C28.4490441,20.8810515 30.9373661,15.7160099 33.3541507,12.041526 C36.9998609,6.49858122 40.7566827,4.48859793 43.2528072,4.48859793 Z"></path>
                    <path d="M82.0693658,64.5679384 C73.0491697,66.6681849 71.7042561,70.8442017 74.062149,76.9826242 C76.4200418,83.1210467 93.4994135,77.7121926 93.4994135,74.7909132 C94.1491115,71.3182708 91.089562,62.4676918 82.0693658,64.5679384 Z" id="Path-Copy-2" fill-opacity="0.99" fill="#1F1F1F" mask="url(#mask-2)"></path>
                    <path d="M166.481157,78.0728974 L149.795984,72.020695 C151.231074,76.8730789 153.339049,81.0843377 156.119912,84.6544715 C158.900774,88.2246053 162.354522,91.153614 166.481157,93.4414978 L166.481157,78.0728974 Z" id="Path-Copy" fill-opacity="0.99" fill="#1F1F1F" mask="url(#mask-2)"></path>
                    <path d="M72.748153,118.045429 C92.013935,119.273215 104.506309,119.638302 110.225276,119.140689 C115.944243,118.643076 115.468441,122.393618 108.797868,130.392316 L105.492418,127.064337 C95.7691083,126.612296 88.2844447,125.663808 83.0384275,124.218873 C77.7924103,122.773937 74.3623188,120.716123 72.748153,118.045429 Z" id="Path" fill-opacity="0.99" fill="#1F1F1F" mask="url(#mask-2)"></path>
                </g>
            </g>
        </g>
    </g>
</svg>